<svg width="674" height="123" viewBox="0 0 674 123" fill="none" xmlns="http://www.w3.org/2000/svg">
<path d="M16.16 92.336C15.5627 94.2133 13.5573 95.152 10.144 95.152C6.816 95.152 3.488 94 0.16 91.696C2.80533 84.528 8.05333 72.624 15.904 55.984C23.84 39.2587 29.1307 26.8 31.776 18.608C32.032 17.584 32.16 16.7307 32.16 16.048C32.16 15.28 31.8613 14.256 31.264 12.976C30.6667 11.696 30.0267 10.672 29.344 9.904L28.448 8.752L28.96 6.19199C36.5547 4.14399 45.5573 3.12 55.968 3.12L65.824 3.632C66.6773 4.4 67.5307 6.40533 68.384 9.64799C69.2373 12.8907 69.792 17.7547 70.048 24.24C70.304 30.7253 70.4747 42.8853 70.56 60.72C70.6453 74.4587 72.352 81.328 75.68 81.328C76.5333 81.328 78.368 80.9013 81.184 80.048L82.464 79.664L85.152 86.96C81.6533 89.6053 77.5573 91.696 72.864 93.232C68.1707 94.768 63.9467 95.536 60.192 95.536C54.7307 95.536 50.976 93.872 48.928 90.544C46.9653 87.1307 45.984 82.7787 45.984 77.488C45.984 72.112 46.0267 68.4 46.112 66.352C44.4907 66.0107 41.3333 65.84 36.64 65.84C31.9467 65.84 27.8933 66.3093 24.48 67.248C21.3227 75.696 18.5493 84.0587 16.16 92.336ZM46.624 55.6C47.0507 48.176 47.264 40.7093 47.264 33.2C47.264 25.6907 46.8373 20.2293 45.984 16.816C45.1307 16.816 44.5333 16.9013 44.192 17.072C42.3147 22.7893 37.28 35.632 29.088 55.6H46.624ZM148.554 42.16C146.762 47.7067 145.226 54.32 143.946 62C142.666 69.5947 142.026 74.928 142.026 78C142.026 80.9867 142.495 82.48 143.434 82.48L149.834 80.688L152.138 87.088C149.407 89.2213 145.909 91.184 141.642 92.976C137.461 94.6827 133.749 95.536 130.506 95.536C124.959 95.536 121.461 93.1467 120.01 88.368C113.269 93.1467 107.295 95.536 102.09 95.536C96.97 95.536 93.002 93.6587 90.186 89.904C87.37 86.1493 85.962 80.7733 85.962 73.776C85.962 64.1333 88.4367 55.6427 93.386 48.304C98.3353 40.9653 104.863 37.296 112.97 37.296C117.407 37.296 121.93 38.5333 126.538 41.008C127.221 39.472 127.775 38.3627 128.202 37.68C134.346 37.68 141.13 39.1733 148.554 42.16ZM110.026 72.24C110.026 76.5067 110.325 79.1947 110.922 80.304C111.519 81.4133 112.629 81.968 114.25 81.968C115.871 81.968 117.45 81.328 118.986 80.048C119.327 70.1493 120.949 59.7813 123.85 48.944C122.57 48.176 121.077 47.792 119.37 47.792C117.749 47.792 116.255 48.7307 114.89 50.608C113.61 52.4853 112.629 54.832 111.946 57.648C110.666 63.024 110.026 67.888 110.026 72.24ZM156.522 94.768H155.498C155.242 93.5733 155.114 91.7387 155.114 89.264C155.114 86.704 156.138 80.176 158.186 69.68C160.319 59.0987 161.386 53.1253 161.386 51.76C161.386 50.3093 161.002 48.8587 160.234 47.408C159.466 45.872 158.698 44.72 157.93 43.952L156.778 42.8L157.034 40.88C162.154 39.2587 170.645 38.448 182.506 38.448C183.615 40.5813 184.298 43.0987 184.554 46C189.759 40.1973 194.367 37.296 198.378 37.296C203.583 37.296 206.442 41.6907 206.954 50.48C206.783 50.6507 206.57 50.9493 206.314 51.376C206.058 51.7173 205.461 52.3573 204.522 53.296C203.583 54.2347 202.602 55.088 201.578 55.856C198.677 57.8187 195.605 58.9707 192.362 59.312C192.277 59.312 191.679 58.3733 190.57 56.496C189.546 54.6187 188.65 53.68 187.882 53.68C187.199 53.68 185.877 54.448 183.914 55.984C183.658 57.52 183.146 60.1227 182.378 63.792C181.695 67.4613 181.141 70.4907 180.714 72.88C179.434 79.1947 178.794 84.4853 178.794 88.752L178.922 92.592C175.167 94.0427 167.701 94.768 156.522 94.768ZM224.439 95.536C217.783 95.536 212.535 93.4453 208.695 89.264C204.855 84.9973 202.935 79.024 202.935 71.344C202.935 61.9573 205.708 54.0213 211.255 47.536C216.802 40.9653 224.098 37.68 233.143 37.68L238.903 38.192C240.951 37.5947 242.871 37.296 244.663 37.296C248.93 37.296 251.959 38.7467 253.751 41.648C255.628 44.5493 256.695 48.688 256.951 54.064C260.535 53.8933 263.948 53.3387 267.191 52.4L268.983 51.888C269.58 52.4853 270.007 54.2773 270.263 57.264L270.391 58.672C266.551 60.6347 261.858 62.1707 256.311 63.28C254.434 72.3253 250.722 79.9627 245.175 86.192C239.628 92.4213 232.716 95.536 224.439 95.536ZM226.999 70.832C226.999 78.768 229.004 82.736 233.015 82.736C235.831 82.736 238.69 80.944 241.591 77.36C244.578 73.776 246.626 69.424 247.735 64.304C239.031 64.304 234.679 60.1227 234.679 51.76C234.679 50.3093 234.807 48.816 235.063 47.28C234.21 47.28 233.57 47.408 233.143 47.664C231.692 49.2 230.284 52.3147 228.919 57.008C227.639 61.616 226.999 66.224 226.999 70.832ZM264.156 94.768H261.98C261.98 89.4773 263.175 81.456 265.564 70.704C268.039 59.952 269.276 53.7653 269.276 52.144C269.276 50.5227 268.892 48.944 268.124 47.408C267.356 45.872 266.588 44.72 265.82 43.952L264.668 42.8L264.924 40.88C269.959 39.2587 278.748 38.448 291.292 38.448C292.145 40.4107 292.743 42.4587 293.084 44.592C300.849 39.8133 307.377 37.424 312.668 37.424C316.252 37.424 319.068 38.6187 321.116 41.008C323.164 43.312 324.188 46.128 324.188 49.456C324.188 52.6987 323.249 57.9467 321.372 65.2C319.495 72.4533 318.556 77.1893 318.556 79.408C318.556 81.5413 318.855 82.608 319.452 82.608L326.236 80.816L328.54 87.216C325.809 89.264 322.225 91.184 317.788 92.976C313.436 94.6827 309.425 95.536 305.756 95.536C298.503 95.536 294.876 91.7813 294.876 84.272C294.876 81.0293 295.772 75.7387 297.564 68.4C299.356 61.0613 300.252 56.496 300.252 54.704C300.252 52.8267 299.655 51.888 298.46 51.888C296.924 51.888 294.876 52.7413 292.316 54.448C291.975 55.984 291.121 59.696 289.756 65.584C287.025 77.9573 285.66 86.8747 285.66 92.336C281.479 93.9573 274.311 94.768 264.156 94.768ZM347.319 0.303993C355.084 0.303993 358.967 2.77866 358.967 7.728C358.967 10.2027 357.687 14.896 355.127 21.808C352.567 28.72 350.178 34.5653 347.959 39.344L340.023 37.936L342.455 0.559998C344.674 0.389328 346.295 0.303993 347.319 0.303993ZM405.729 76.72C405.729 82.0107 403.254 86.4907 398.305 90.16C393.441 93.744 387.724 95.536 381.153 95.536C374.582 95.536 369.164 94.4267 364.897 92.208C360.716 89.9893 358.625 87.8987 358.625 85.936C358.625 83.888 359.905 81.328 362.465 78.256C365.11 75.0987 367.798 73.264 370.529 72.752C374.454 74.8853 377.996 79.6213 381.153 86.96C383.628 86.96 384.865 86.1493 384.865 84.528C384.865 83.3333 384.524 82.224 383.841 81.2C383.158 80.176 382.646 79.3653 382.305 78.768C381.964 78.1707 381.366 77.36 380.513 76.336C379.66 75.2267 379.02 74.416 378.593 73.904C376.46 71.344 374.54 68.9973 372.833 66.864C368.737 61.744 366.689 57.264 366.689 53.424C366.689 49.4987 367.926 46.2987 370.401 43.824C374.668 39.472 380.94 37.296 389.217 37.296C394.422 37.296 398.561 38.32 401.633 40.368C404.705 42.3307 406.241 45.3173 406.241 49.328C406.241 53.2533 403.894 57.776 399.201 62.896C403.553 67.9307 405.729 72.5387 405.729 76.72ZM397.153 53.296C398.177 51.6747 398.689 50.224 398.689 48.944C398.689 47.664 398.134 46.6827 397.025 46C395.916 45.3173 394.593 44.976 393.057 44.976C391.521 44.976 390.326 45.36 389.473 46.128C388.705 46.8107 388.321 47.7493 388.321 48.944C388.321 50.1387 390.156 52.784 393.825 56.88C395.02 56.0267 396.129 54.832 397.153 53.296ZM480.348 95.536C473.521 95.536 466.695 94.3413 459.868 91.952C454.919 93.8293 449.201 94.768 442.716 94.768C441.265 94.768 439.943 94.6827 438.748 94.512C438.748 89.392 441.095 76.7627 445.788 56.624C450.481 36.4853 452.828 25.0933 452.828 22.448C452.828 19.8027 452.316 17.456 451.292 15.408C450.353 13.36 449.372 11.824 448.348 10.8L446.94 9.392L447.452 6.19199C449.585 5.76533 454.492 5.16799 462.172 4.39999C469.937 3.54666 476.508 3.12 481.884 3.12C502.705 3.12 513.116 9.81866 513.116 23.216C513.116 29.4453 510.983 34.5227 506.716 38.448C502.535 42.3733 497.329 45.0187 491.1 46.384C496.988 47.0667 501.937 49.2 505.948 52.784C509.959 56.2827 511.964 61.2747 511.964 67.76C511.964 75.7813 508.977 82.4373 503.004 87.728C497.031 92.9333 489.479 95.536 480.348 95.536ZM475.996 50.736C474.46 50.736 472.753 50.864 470.876 51.12C467.548 65.712 465.415 76.2933 464.476 82.864C466.353 83.9733 468.913 84.528 472.156 84.528C477.105 84.528 480.817 82.48 483.292 78.384C485.767 74.288 487.004 69.68 487.004 64.56C487.004 59.3547 486.065 55.7707 484.188 53.808C482.396 51.76 479.665 50.736 475.996 50.736ZM474.332 41.392C478.087 41.392 481.031 39.984 483.164 37.168C487.004 32.304 488.924 26.928 488.924 21.04C488.924 15.0667 486.876 12.08 482.78 12.08L478.556 12.592C478.471 15.92 476.679 25.52 473.18 41.392H474.332ZM552.65 86.832C549.919 89.2213 546.335 91.2693 541.898 92.976C537.461 94.6827 533.407 95.536 529.738 95.536C526.154 95.536 523.21 94.512 520.906 92.464C518.602 90.3307 517.45 87.3013 517.45 83.376C517.45 79.4507 519.583 68.528 523.85 50.608C528.202 32.6027 530.378 19.248 530.378 10.544C530.378 8.66666 530.122 6.27733 529.61 3.376C537.631 1.15733 545.397 0.0479965 552.906 0.0479965C553.674 1.41333 554.058 3.63199 554.058 6.70399C554.058 12.5067 551.882 25.1787 547.53 44.72C543.263 64.176 541.13 75.3973 541.13 78.384C541.13 81.3707 541.642 82.864 542.666 82.864C543.519 82.864 545.354 82.3093 548.17 81.2L549.578 80.56L552.65 86.832ZM576.314 95.536C569.658 95.536 564.41 93.4453 560.57 89.264C556.73 84.9973 554.81 79.024 554.81 71.344C554.81 61.9573 557.583 54.0213 563.13 47.536C568.677 40.9653 575.973 37.68 585.018 37.68L590.778 38.192C592.826 37.5947 594.746 37.296 596.538 37.296C600.805 37.296 603.834 38.7467 605.626 41.648C607.503 44.5493 608.57 48.688 608.826 54.064C612.41 53.8933 615.823 53.3387 619.066 52.4L620.858 51.888C621.455 52.4853 621.882 54.2773 622.138 57.264L622.266 58.672C618.426 60.6347 613.733 62.1707 608.186 63.28C606.309 72.3253 602.597 79.9627 597.05 86.192C591.503 92.4213 584.591 95.536 576.314 95.536ZM578.874 70.832C578.874 78.768 580.879 82.736 584.89 82.736C587.706 82.736 590.565 80.944 593.466 77.36C596.453 73.776 598.501 69.424 599.61 64.304C590.906 64.304 586.554 60.1227 586.554 51.76C586.554 50.3093 586.682 48.816 586.938 47.28C586.085 47.28 585.445 47.408 585.018 47.664C583.567 49.2 582.159 52.3147 580.794 57.008C579.514 61.616 578.874 66.224 578.874 70.832ZM645.343 88.496C639.37 91.7387 634.036 93.36 629.343 93.36C624.735 93.36 620.852 91.5253 617.695 87.856C614.623 84.1013 613.087 78.5547 613.087 71.216C613.087 61.4027 615.732 53.296 621.023 46.896C626.399 40.496 632.799 37.296 640.223 37.296C643.807 37.296 647.86 38.2773 652.383 40.24C657.674 38.6187 663.69 37.808 670.431 37.808H672.607C673.034 38.6613 673.247 40.5813 673.247 43.568C673.247 46.4693 672.692 52.2293 671.583 60.848C670.559 69.4667 669.407 76.6773 668.127 82.48C665.396 94.8533 661.13 104.624 655.327 111.792C649.61 119.045 642.399 122.672 633.695 122.672C629.428 122.672 625.93 121.733 623.199 119.856C620.554 117.979 619.231 115.589 619.231 112.688C619.231 109.787 619.914 107.355 621.279 105.392C622.73 103.515 624.778 101.936 627.423 100.656C631.946 98.4373 637.492 96.6027 644.063 95.152L645.343 88.496ZM646.111 47.664C643.124 47.664 640.82 50.224 639.199 55.344C637.663 60.464 636.895 66.0107 636.895 71.984C636.895 77.9573 638.303 80.944 641.119 80.944C642.314 80.944 644.063 80.3467 646.367 79.152C647.05 72.24 648.159 62 649.695 48.432C648.415 47.92 647.22 47.664 646.111 47.664ZM631.519 113.2C633.14 113.2 634.975 112.389 637.023 110.768C639.156 109.147 640.906 106.501 642.271 102.832C632.97 104.453 628.319 106.928 628.319 110.256C628.49 112.219 629.556 113.2 631.519 113.2Z" fill="#258F86"/>
</svg>
